<mxfile host="app.diagrams.net" modified="2023-01-30T11:04:52.014Z" agent="5.0 (Macintosh; Intel Mac OS X 10_15_7) AppleWebKit/605.1.15 (KHTML, like Gecko) Version/14.1.2 Safari/605.1.15" etag="B4pI606HGRPCE2LnxruT" version="20.8.13" type="github">
  <diagram name="Page-1" id="74e2e168-ea6b-b213-b513-2b3c1d86103e">
    <mxGraphModel dx="1188" dy="854" grid="1" gridSize="10" guides="1" tooltips="1" connect="1" arrows="1" fold="1" page="1" pageScale="1" pageWidth="1100" pageHeight="850" background="none" math="0" shadow="0">
      <root>
        <mxCell id="0" />
        <mxCell id="1" parent="0" />
        <mxCell id="3uvvEj1fBNnVZfnWXY3Z-1" value="START" style="ellipse;whiteSpace=wrap;html=1;" vertex="1" parent="1">
          <mxGeometry x="460" y="30" width="120" height="80" as="geometry" />
        </mxCell>
        <mxCell id="3uvvEj1fBNnVZfnWXY3Z-3" value="" style="endArrow=classic;html=1;rounded=0;exitX=0.5;exitY=1;exitDx=0;exitDy=0;" edge="1" parent="1" source="3uvvEj1fBNnVZfnWXY3Z-1">
          <mxGeometry width="50" height="50" relative="1" as="geometry">
            <mxPoint x="510" y="200" as="sourcePoint" />
            <mxPoint x="520" y="160" as="targetPoint" />
            <Array as="points" />
          </mxGeometry>
        </mxCell>
        <mxCell id="3uvvEj1fBNnVZfnWXY3Z-4" value="SUM = 0&lt;br&gt;X = 0" style="rounded=0;whiteSpace=wrap;html=1;" vertex="1" parent="1">
          <mxGeometry x="440" y="160" width="160" height="80" as="geometry" />
        </mxCell>
        <mxCell id="3uvvEj1fBNnVZfnWXY3Z-6" value="" style="endArrow=classic;html=1;rounded=0;exitX=0.5;exitY=1;exitDx=0;exitDy=0;" edge="1" parent="1" source="3uvvEj1fBNnVZfnWXY3Z-4">
          <mxGeometry relative="1" as="geometry">
            <mxPoint x="480" y="400" as="sourcePoint" />
            <mxPoint x="520" y="300" as="targetPoint" />
          </mxGeometry>
        </mxCell>
        <mxCell id="3uvvEj1fBNnVZfnWXY3Z-12" style="edgeStyle=orthogonalEdgeStyle;rounded=0;orthogonalLoop=1;jettySize=auto;html=1;exitX=0.5;exitY=1;exitDx=0;exitDy=0;" edge="1" parent="1" source="3uvvEj1fBNnVZfnWXY3Z-8">
          <mxGeometry relative="1" as="geometry">
            <mxPoint x="520" y="430" as="targetPoint" />
          </mxGeometry>
        </mxCell>
        <mxCell id="3uvvEj1fBNnVZfnWXY3Z-8" value="X" style="shape=parallelogram;perimeter=parallelogramPerimeter;whiteSpace=wrap;html=1;fixedSize=1;" vertex="1" parent="1">
          <mxGeometry x="445" y="300" width="150" height="80" as="geometry" />
        </mxCell>
        <mxCell id="3uvvEj1fBNnVZfnWXY3Z-13" value="SUM = SUM &amp;nbsp;+ &amp;nbsp; (X * X)" style="rounded=0;whiteSpace=wrap;html=1;" vertex="1" parent="1">
          <mxGeometry x="422.5" y="430" width="195" height="80" as="geometry" />
        </mxCell>
        <mxCell id="3uvvEj1fBNnVZfnWXY3Z-15" value="&lt;br&gt;" style="endArrow=classic;html=1;rounded=0;exitX=0.5;exitY=1;exitDx=0;exitDy=0;" edge="1" parent="1" source="3uvvEj1fBNnVZfnWXY3Z-13">
          <mxGeometry relative="1" as="geometry">
            <mxPoint x="445" y="570" as="sourcePoint" />
            <mxPoint x="520" y="560" as="targetPoint" />
          </mxGeometry>
        </mxCell>
        <mxCell id="3uvvEj1fBNnVZfnWXY3Z-17" value="Source" style="edgeLabel;resizable=0;html=1;align=left;verticalAlign=bottom;" connectable="0" vertex="1" parent="3uvvEj1fBNnVZfnWXY3Z-15">
          <mxGeometry x="-1" relative="1" as="geometry" />
        </mxCell>
        <mxCell id="3uvvEj1fBNnVZfnWXY3Z-18" value="SUM&lt;br&gt;" style="rounded=0;whiteSpace=wrap;html=1;" vertex="1" parent="1">
          <mxGeometry x="430" y="560" width="190" height="60" as="geometry" />
        </mxCell>
        <mxCell id="3uvvEj1fBNnVZfnWXY3Z-19" value="" style="endArrow=classic;html=1;rounded=0;exitX=0.458;exitY=1.05;exitDx=0;exitDy=0;exitPerimeter=0;" edge="1" parent="1" target="3uvvEj1fBNnVZfnWXY3Z-22">
          <mxGeometry relative="1" as="geometry">
            <mxPoint x="517.02" y="621" as="sourcePoint" />
            <mxPoint x="517" y="668" as="targetPoint" />
          </mxGeometry>
        </mxCell>
        <mxCell id="3uvvEj1fBNnVZfnWXY3Z-22" value="END" style="ellipse;whiteSpace=wrap;html=1;" vertex="1" parent="1">
          <mxGeometry x="457" y="660" width="120" height="80" as="geometry" />
        </mxCell>
      </root>
    </mxGraphModel>
  </diagram>
</mxfile>
